<svg xmlns="http://www.w3.org/2000/svg" width="24" height="24" viewBox="0 0 24 24">
  <path fill="currentColor" fill-rule="evenodd" d="M12 0a3.13 3.13 0 0 0-3.13 3.13H5.113A2.504 2.504 0 0 0 2.61 5.635v15.86A2.505 2.505 0 0 0 5.113 24h13.774a2.505 2.505 0 0 0 2.505-2.504V5.635a2.505 2.505 0 0 0-2.505-2.505h-3.756A3.13 3.13 0 0 0 12 0Zm-1.043 3.13a1.044 1.044 0 1 1 2.087 0 1.044 1.044 0 0 1-2.087 0Zm-5.218 7.305A1.043 1.043 0 0 1 6.783 9.39h10.435a1.043 1.043 0 0 1 0 2.087H6.783a1.044 1.044 0 0 1-1.044-1.043Zm0 3.13a1.043 1.043 0 0 1 1.044-1.043h10.435a1.043 1.043 0 0 1 0 2.087H6.783a1.043 1.043 0 0 1-1.044-1.044Zm0 3.13a1.044 1.044 0 0 1 1.044-1.043h6.26a1.043 1.043 0 1 1 0 2.087h-6.26a1.043 1.043 0 0 1-1.044-1.043Z" clip-rule="evenodd"/>
</svg>
