<svg xmlns="http://www.w3.org/2000/svg" width="24" height="24" fill="none" viewBox="0 0 24 24">
  <path fill="currentColor" fill-rule="evenodd" d="M23.72 19.088H0V17.43h23.72v1.657Z" clip-rule="evenodd"/>
  <path fill="currentColor" d="M4.503 13.238v-8.13H2.63L0 6.868v1.806l2.508-1.665h.121v6.229H.007v1.598H6.99v-1.598H4.503ZM8.258 8.04v.04h1.78v-.047c0-.93.647-1.564 1.611-1.564.944 0 1.558.553 1.558 1.396 0 .654-.344 1.166-1.672 2.494l-3.169 3.135v1.342h6.857v-1.612h-4.255v-.12l1.902-1.814c1.645-1.578 2.204-2.488 2.204-3.553 0-1.686-1.355-2.825-3.364-2.825-2.043 0-3.452 1.268-3.452 3.128Zm10.841 2.528h1.16c1.119 0 1.84.56 1.84 1.43 0 .856-.708 1.402-1.82 1.402-1.045 0-1.747-.526-1.814-1.355h-1.773c.088 1.82 1.517 2.986 3.64 2.986 2.178 0 3.668-1.18 3.668-2.905 0-1.288-.782-2.151-2.097-2.306v-.121c1.066-.216 1.72-1.059 1.72-2.205 0-1.537-1.342-2.582-3.317-2.582-2.057 0-3.358 1.12-3.425 2.946h1.706c.06-.856.7-1.402 1.658-1.402.977 0 1.598.512 1.598 1.321 0 .816-.634 1.349-1.605 1.349h-1.14v1.442Z"/>
</svg>
