<svg xmlns="http://www.w3.org/2000/svg" width="24" height="24" fill="none" viewBox="0 0 24 24">
  <path fill="currentColor" d="M6.87 9.397a.291.291 0 0 0-.071-.211L4.49 6.56a.291.291 0 0 0-.41-.027A12.004 12.004 0 0 0 1.463 9.8a.291.291 0 0 0 .116.395l3.067 1.677a.29.29 0 0 0 .395-.116 7.937 7.937 0 0 1 1.73-2.16.29.29 0 0 0 .099-.2Zm1.03-.972a.291.291 0 0 0 .394.12 7.843 7.843 0 0 1 2.629-.845.291.291 0 0 0 .25-.328l-.47-3.463a.292.292 0 0 0-.328-.25c-1.4.19-2.744.622-3.991 1.284a.291.291 0 0 0-.121.394L7.9 8.425Zm-3.752 4.687-3.373-.916a.291.291 0 0 0-.357.205 12.032 12.032 0 0 0-.405 3.71.291.291 0 0 0 .305.276l3.491-.16a.29.29 0 0 0 .278-.305 7.96 7.96 0 0 1 .266-2.453.291.291 0 0 0-.205-.357Zm13.057-8.377a11.91 11.91 0 0 0-4.036-1.129.29.29 0 0 0-.318.262l-.337 3.479a.291.291 0 0 0 .262.318c.927.09 1.822.34 2.659.743a.29.29 0 0 0 .388-.136l1.518-3.148a.291.291 0 0 0-.136-.389Zm5.134 4.886a.291.291 0 0 0-.033-.22 12.011 12.011 0 0 0-2.739-3.165.292.292 0 0 0-.41.043L16.953 8.99a.291.291 0 0 0 .042.41 7.942 7.942 0 0 1 1.812 2.093.291.291 0 0 0 .4.1l3-1.793a.291.291 0 0 0 .133-.179Zm1.114 2.337a.291.291 0 0 0-.365-.19l-3.336 1.044a.291.291 0 0 0-.19.366 7.925 7.925 0 0 1 .351 2.744.291.291 0 0 0 .278.304l3.491.161h.014a.291.291 0 0 0 .29-.277 12 12 0 0 0-.533-4.152ZM11.99 14.932c-.05 0-.1.001-.15.004l-4.732-2.792a.3.3 0 0 0-.417.4l2.581 4.837a2.714 2.714 0 0 0 .786 2.214c.516.516 1.202.8 1.932.8s1.415-.284 1.931-.8.8-1.202.8-1.932-.284-1.415-.8-1.931a2.714 2.714 0 0 0-1.931-.8Z"/>
</svg>
