<svg xmlns="http://www.w3.org/2000/svg" width="24" height="24" fill="none" viewBox="0 0 24 24">
  <path fill="currentColor" d="M5.5 3h2.25a.25.25 0 0 1 0 .5h-2A2.25 2.25 0 0 0 3.5 5.75v2a.25.25 0 0 1-.5 0V5.5A2.5 2.5 0 0 1 5.5 3ZM3 18.5v-2.25a.25.25 0 1 1 .5 0v2a2.25 2.25 0 0 0 2.25 2.25h2a.25.25 0 1 1 0 .5H5.5A2.5 2.5 0 0 1 3 18.5ZM18.5 21h-2.25a.25.25 0 1 1 0-.5h2a2.25 2.25 0 0 0 2.25-2.25v-2a.25.25 0 1 1 .5 0v2.25a2.5 2.5 0 0 1-2.5 2.5ZM21 5.5v2.25a.25.25 0 1 1-.5 0v-2a2.25 2.25 0 0 0-2.25-2.25h-2a.25.25 0 1 1 0-.5h2.25A2.5 2.5 0 0 1 21 5.5Z"/>
</svg>
