<svg  width="16" height="17" viewBox="0 0 16 17" xmlns="http://www.w3.org/2000/svg">
<path  d="M0.800049 4.00876C0.800049 3.6212 1.07635 3.30702 1.41719 3.30702L3.54857 3.30664C3.97205 3.29444 4.34565 2.98825 4.48974 2.53529C4.49353 2.52338 4.49789 2.50869 4.51351 2.45538L4.60535 2.14204C4.66155 1.94992 4.71051 1.78254 4.77903 1.63293C5.0497 1.04189 5.55049 0.631457 6.1292 0.526377C6.27568 0.499777 6.43082 0.499889 6.6089 0.500017H9.39129C9.56937 0.499889 9.72448 0.499777 9.87096 0.526377C10.4497 0.631457 10.9505 1.04189 11.2211 1.63293C11.2897 1.78254 11.3386 1.94992 11.3948 2.14204L11.4866 2.45538C11.5022 2.50869 11.5066 2.52338 11.5104 2.53529C11.6546 2.98825 12.1022 3.29481 12.5257 3.30702H14.5829C14.9237 3.30702 15.2 3.6212 15.2 4.00876C15.2 4.39633 14.9237 4.71051 14.5829 4.71051H1.41719C1.07635 4.71051 0.800049 4.39633 0.800049 4.00876Z" fill="#E44F49"/>
<path fill="currentColor" fill-rule="evenodd" clip-rule="evenodd" d="M7.67649 16.5H8.32353C10.5497 16.5 11.6628 16.5 12.3865 15.7913C13.1102 15.0826 13.1842 13.92 13.3323 11.5948L13.5457 8.24452C13.6261 6.98293 13.6662 6.35216 13.3031 5.95244C12.9401 5.55271 12.327 5.55271 11.1008 5.55271H4.89926C3.67305 5.55271 3.05994 5.55271 2.69688 5.95244C2.33382 6.35216 2.37399 6.98293 2.45434 8.24452L2.66771 11.5948C2.8158 13.92 2.88984 15.0826 3.61355 15.7913C4.33726 16.5 5.45034 16.5 7.67649 16.5ZM6.59706 8.65084C6.5641 8.3038 6.27004 8.05052 5.94032 8.08524C5.61059 8.11996 5.37003 8.42948 5.403 8.77652L5.803 12.9871C5.83598 13.3341 6.13 13.5874 6.4597 13.5527C6.78946 13.5179 7.03002 13.2084 6.99706 12.8614L6.59706 8.65084ZM10.0597 8.08524C10.3894 8.11996 10.63 8.42948 10.597 8.77652L10.197 12.9871C10.1641 13.3341 9.87 13.5874 9.54032 13.5527C9.21057 13.5179 8.97001 13.2084 9.00297 12.8614L9.40297 8.65084C9.43593 8.3038 9.73 8.05052 10.0597 8.08524Z"/>
</svg>
