<svg xmlns="http://www.w3.org/2000/svg" width="24" height="24" fill="none" viewBox="0 0 24 24">
  <path fill="currentColor" d="M17.13 9.397a.292.292 0 0 1 .071-.211L19.51 6.56a.291.291 0 0 1 .41-.027A12.017 12.017 0 0 1 22.537 9.8a.291.291 0 0 1-.116.395l-3.067 1.677a.29.29 0 0 1-.395-.116 7.936 7.936 0 0 0-1.73-2.16.29.29 0 0 1-.099-.2Zm-1.03-.972a.291.291 0 0 1-.394.12 7.843 7.843 0 0 0-2.629-.845.291.291 0 0 1-.25-.328l.47-3.463a.292.292 0 0 1 .328-.25c1.4.19 2.744.622 3.991 1.284a.291.291 0 0 1 .121.394L16.1 8.425Zm3.752 4.687 3.373-.916a.291.291 0 0 1 .357.205 12.032 12.032 0 0 1 .405 3.71.291.291 0 0 1-.305.276l-3.491-.16a.29.29 0 0 1-.278-.305 7.95 7.95 0 0 0-.267-2.453.291.291 0 0 1 .206-.357ZM6.795 4.735a11.91 11.91 0 0 1 4.036-1.129.29.29 0 0 1 .318.262l.337 3.479a.291.291 0 0 1-.262.318 7.85 7.85 0 0 0-2.658.743.29.29 0 0 1-.39-.136L6.66 5.124a.291.291 0 0 1 .136-.389ZM1.661 9.621a.291.291 0 0 1 .033-.22 12.01 12.01 0 0 1 2.739-3.165.292.292 0 0 1 .41.043L7.047 8.99a.291.291 0 0 1-.042.41 7.94 7.94 0 0 0-1.812 2.093.291.291 0 0 1-.4.1l-3-1.793a.292.292 0 0 1-.133-.179ZM.547 11.958a.291.291 0 0 1 .365-.19l3.336 1.044a.291.291 0 0 1 .19.366 7.926 7.926 0 0 0-.351 2.744.291.291 0 0 1-.278.304l-3.491.161H.304a.291.291 0 0 1-.29-.277 12.028 12.028 0 0 1 .533-4.152Zm11.463 2.974c.05 0 .1.001.15.004l4.732-2.792a.3.3 0 0 1 .417.4l-2.581 4.837a2.714 2.714 0 0 1-.786 2.214c-.516.516-1.202.8-1.932.8s-1.415-.284-1.931-.8a2.714 2.714 0 0 1-.8-1.932c0-.73.284-1.415.8-1.931a2.714 2.714 0 0 1 1.931-.8Z"/>
</svg>
