<svg xmlns="http://www.w3.org/2000/svg" width="24" height="24" viewBox="0 0 24 24">
  <path fill="currentColor" d="m2.538.692 20.77 20.77-1.846 1.846-4.27-4.27c-1.577.847-3.307 1.27-5.192 1.27-2.462 0-4.73-.75-6.808-2.25C3.077 16.558 1.346 14.538 0 12a19.286 19.286 0 0 1 2.192-3.115C3.038 7.808 3.846 7 4.615 6.462L.692 2.539 2.538.692Zm15 11.308c0-1.538-.538-2.846-1.615-3.923S13.54 6.462 12 6.462L9.52 3.98c.96-.192 1.788-.289 2.48-.289 2.5 0 4.808.77 6.923 2.308C21 7.54 22.693 9.54 24 12c-.23.5-.596 1.116-1.096 1.846-.5.731-1.02 1.385-1.558 1.962L17.538 12ZM12 17.538c1.039 0 2-.269 2.885-.807l-1.674-1.673A4.193 4.193 0 0 1 12 15.23c-.885 0-1.635-.308-2.25-.923-.654-.654-.98-1.423-.98-2.308 0-.346.076-.73.23-1.154l-1.73-1.73A5.446 5.446 0 0 0 6.461 12c0 1.539.538 2.846 1.615 3.923S10.46 17.538 12 17.538Z"/>
</svg>
