<svg xmlns="http://www.w3.org/2000/svg" width="24" height="24" viewBox="0 0 24 24">
  <path fill="currentColor" d="M10.182 0c.625 0 1.131.412 1.131.92v9.191c0 2.223-1.943 4.078-4.525 4.504v8.282c0 .61-.507 1.103-1.131 1.103-.625 0-1.132-.494-1.132-1.103v-8.282C1.943 14.189 0 12.335 0 10.111V.919C0 .412.507 0 1.131 0c.625 0 1.132.412 1.132.92v7.66c0 .507.506.918 1.13.918.626 0 1.132-.411 1.132-.919V.92c0-.508.507-.92 1.132-.92.624 0 1.13.412 1.13.92v7.66c0 .507.507.918 1.132.918.625 0 1.132-.411 1.132-.919V.92C9.05.412 9.557 0 10.18 0ZM24 9.17C24 6.112 21.468 0 18.343 0c-3.124 0-5.656 6.112-5.656 9.17 0 2.679 1.943 4.913 4.525 5.426v8.301c0 .61.507 1.103 1.131 1.103.625 0 1.132-.494 1.132-1.103v-8.3C22.057 14.082 24 11.848 24 9.17Z"/>
</svg>
