<svg xmlns="http://www.w3.org/2000/svg" width="24" height="24" viewBox="0 0 24 24">
  <path fill="currentColor" fill-rule="evenodd" d="M7.2 3.6v3.605c-.598.008-1.132.031-1.593.094-.787.105-1.541.344-2.153.955-.611.612-.85 1.366-.956 2.153-.098.734-.098 1.65-.098 2.714v4.958c0 1.064 0 1.98.098 2.714.106.787.345 1.541.956 2.153.612.611 1.366.85 2.153.955.734.1 1.65.1 2.714.099h7.358c1.064 0 1.98 0 2.714-.099.787-.105 1.54-.344 2.152-.955.612-.612.85-1.366.956-2.153.099-.734.099-1.65.099-2.714v-4.958c0-1.064 0-1.98-.099-2.714-.106-.787-.344-1.541-.956-2.153-.611-.611-1.365-.85-2.152-.955a13.779 13.779 0 0 0-1.593-.094V3.6A3.6 3.6 0 0 0 13.2 0h-2.4a3.6 3.6 0 0 0-3.6 3.6Zm3.6-1.2a1.2 1.2 0 0 0-1.2 1.2v3.6h4.8V3.6a1.2 1.2 0 0 0-1.2-1.2h-2.4ZM12 13.2a2.4 2.4 0 1 0 0 4.8 2.4 2.4 0 0 0 0-4.8Z" clip-rule="evenodd"/>
</svg>
