<svg xmlns="http://www.w3.org/2000/svg" width="24" height="24" fill="none" viewBox="0 0 24 24">
  <path fill="currentColor" fill-rule="evenodd" d="M8.4 5.372c0-2.753 0-4.13.849-4.882.849-.752 2.146-.526 4.74-.073l2.795.487c2.873.501 4.31.752 5.163 1.806.853 1.054.853 2.578.853 5.627v7.327c0 3.048 0 4.572-.853 5.626-.853 1.054-2.29 1.305-5.163 1.806l-2.795.487c-2.594.453-3.892.679-4.74-.073-.849-.753-.849-2.13-.849-4.882V5.372Zm4.5 5.372c0-.52-.403-.942-.9-.942s-.9.422-.9.942v2.512c0 .52.403.942.9.942s.9-.422.9-.942v-2.512Z" clip-rule="evenodd"/>
  <path fill="currentColor" d="M2.079 3.878c.82-.82 2.108-.874 4.578-.878C6.6 3.748 6.6 4.613 6.6 5.547v12.905c0 .935 0 1.8.057 2.547-2.47-.003-3.758-.057-4.578-.878C1.2 19.242 1.2 17.828 1.2 15V9c0-2.829 0-4.243.879-5.122Z"/>
</svg>
