<svg xmlns="http://www.w3.org/2000/svg" width="24" height="24" fill="none" viewBox="0 0 24 24">
  <path fill="#E7C6A4" d="M3.264 18.16a5.84 5.84 0 0 1 5.84-5.84h5.84a5.84 5.84 0 0 1 0 11.68h-5.84a5.84 5.84 0 0 1-5.84-5.84Z"/>
  <path fill="#2F394A" d="M8.735 19.29a1.09 1.09 0 1 0 0-2.18 1.09 1.09 0 0 0 0 2.18Zm6.579 0a1.09 1.09 0 1 0 0-2.18 1.09 1.09 0 0 0 0 2.18Z"/>
  <path fill="#fff" d="M7.644 2.628a4.38 4.38 0 0 0-1.752 8.396v2.336h12.265v-2.336a4.381 4.381 0 0 0-2.399-8.349 3.944 3.944 0 0 0-7.468 0 4.416 4.416 0 0 0-.646-.047Z"/>
  <path fill="#2F394A" d="M4.863 16.837c.224 0 .406.151.406.339v3.395c0 .82-.697 1.505-1.623 1.663v1.256a.407.407 0 1 1-.812 0v-1.256c-.926-.158-1.624-.842-1.624-1.664v-3.394c0-.188.182-.34.406-.34.224 0 .406.152.406.34v2.829c0 .187.182.34.406.34.224 0 .406-.153.406-.34v-2.83c0-.187.182-.338.406-.338.224 0 .406.151.406.339v2.829c0 .187.181.34.405.34.225 0 .406-.153.406-.34v-2.83c0-.187.182-.338.406-.338Zm17.927 3.386c0-1.13-.909-3.386-2.03-3.386-1.12 0-2.029 2.257-2.029 3.386 0 .99.697 1.814 1.624 2.004v1.263a.407.407 0 1 0 .811 0v-1.263a2.042 2.042 0 0 0 1.624-2.004Z"/>
</svg>
