<svg xmlns="http://www.w3.org/2000/svg" width="24" height="24" fill="none" viewBox="0 0 24 24">
  <path fill="currentColor" d="M3.264 7.008A4.38 4.38 0 0 1 8.29 2.675a3.944 3.944 0 0 1 7.468 0 4.38 4.38 0 0 1 2.398 8.349v2.257a5.848 5.848 0 0 1 2.48 3.565.848.848 0 0 1 .125-.01c1.12 0 2.029 2.258 2.029 3.387 0 .99-.697 1.814-1.623 2.004v1.263a.407.407 0 1 1-.812 0v-1.263a2.014 2.014 0 0 1-.86-.406A5.829 5.829 0 0 1 14.945 24H9.103a5.829 5.829 0 0 1-4.528-2.152c-.26.19-.579.326-.93.386v1.256a.407.407 0 1 1-.812 0v-1.256c-.926-.158-1.624-.842-1.624-1.664v-3.394c0-.188.182-.34.406-.34.224 0 .406.152.406.34v2.829c0 .187.182.34.406.34.224 0 .406-.153.406-.34v-2.83c0-.187.182-.338.406-.338.06 0 .116.01.167.03a5.847 5.847 0 0 1 2.485-3.586v-2.257a4.382 4.382 0 0 1-2.628-4.016Z"/>
</svg>
