<svg xmlns="http://www.w3.org/2000/svg" width="24" height="24" viewBox="0 0 24 24">
  <path fill="currentColor" d="M12 2.637c-.633 0-1.062.364-1.389.985a4 4 0 0 0-.327.891A9.696 9.696 0 0 1 12 4.362c.592 0 1.164.052 1.716.151a4 4 0 0 0-.327-.891C13.062 3 12.633 2.637 12 2.637Zm0 2.833c-5.817 0-9.437 5.3-9.67 10.719h19.34C21.438 10.77 17.818 5.47 12 5.47ZM.62 16.474l-.62.784c.883 1.116 1.869 1.148 2.648 1.148h18.704c.78 0 1.765-.032 2.648-1.148l-.62-.784c-.676.855-1.249.823-2.028.823H2.648c-.78 0-1.352.032-2.028-.823Zm4.406 3.04L6 21.365h12l.974-1.85H5.026Z"/>
</svg>
