<svg xmlns="http://www.w3.org/2000/svg" width="24" height="24" fill="none" viewBox="0 0 24 24">
  <path fill="currentColor" d="M0 11.988c0-1.392.272-2.72.816-3.985a10.639 10.639 0 0 1 2.185-3.288c.912-.928 2.008-1.657 3.288-2.185 1.28-.528 2.617-.8 4.009-.816 1.392 0 2.72.272 3.985.816a10.64 10.64 0 0 1 3.288 2.185c.928.912 1.656 2.008 2.185 3.288.528 1.28.8 2.609.816 3.985H22.3c.368 0 .688.104.96.312.272.208.472.464.6.768s.168.624.12.96a1.488 1.488 0 0 1-.48.888l-3.432 3.433a1.639 1.639 0 0 1-1.2.504 1.72 1.72 0 0 1-1.225-.504l-3.432-3.433a1.54 1.54 0 0 1-.457-.888 1.941 1.941 0 0 1 .097-.96 1.63 1.63 0 0 1 .6-.768c.288-.208.616-.312.984-.312h1.704a6.762 6.762 0 0 0-.912-3.433A6.676 6.676 0 0 0 13.73 6.06a6.762 6.762 0 0 0-3.432-.912 6.893 6.893 0 0 0-3.457.912 6.454 6.454 0 0 0-2.496 2.496 7.098 7.098 0 0 0-.912 3.433 6.58 6.58 0 0 0 .912 3.457A6.675 6.675 0 0 0 6.84 17.94c1.04.592 2.193.896 3.457.912.864 0 1.704-.16 2.52-.48l2.569 2.545a9.948 9.948 0 0 1-5.09 1.368c-1.407 0-2.744-.272-4.008-.816A10.638 10.638 0 0 1 3 19.284c-.929-.912-1.657-2.008-2.185-3.288-.528-1.28-.8-2.617-.816-4.009Z"/>
</svg>
