<svg xmlns="http://www.w3.org/2000/svg" width="24" height="24" fill="none" viewBox="0 0 24 24">
  <path fill="currentColor" fill-rule="evenodd" d="M14.163 4c0-2.21 1.8-4 4.019-4C20.4 0 22.2 1.79 22.2 4s-1.8 4-4.018 4a4.015 4.015 0 0 1-2.862-1.192l-5.562 3.787a4.004 4.004 0 0 1-.219 2.3l6.1 4.008A4.015 4.015 0 0 1 18.182 16c2.219 0 4.018 1.79 4.018 4s-1.8 4-4.018 4c-2.22 0-4.019-1.79-4.019-4 0-.579.124-1.13.347-1.627l-6.05-3.975a4.015 4.015 0 0 1-2.642.987 4.009 4.009 0 0 1-4.018-4c0-2.21 1.799-4 4.018-4a4.02 4.02 0 0 1 3.148 1.513l5.39-3.67A3.98 3.98 0 0 1 14.164 4Z" clip-rule="evenodd"/>
</svg>
