<svg xmlns="http://www.w3.org/2000/svg" width="24" height="24" fill="none" viewBox="0 0 24 24">
  <path fill="currentColor" d="M12 16a4 4 0 1 0 0-8 4 4 0 0 0 0 8Z"/>
  <path fill="currentColor" fill-rule="evenodd" d="M12 0c.736 0 1.333.597 1.333 1.333v1.428a9.34 9.34 0 0 1 7.906 7.906h1.428a1.333 1.333 0 1 1 0 2.666h-1.428a9.34 9.34 0 0 1-7.906 7.906v1.428a1.333 1.333 0 1 1-2.666 0v-1.428a9.34 9.34 0 0 1-7.906-7.906H1.333a1.333 1.333 0 1 1 0-2.666h1.428a9.34 9.34 0 0 1 7.906-7.906V1.333C10.667.597 11.264 0 12 0ZM5.333 12a6.667 6.667 0 1 1 13.334 0 6.667 6.667 0 0 1-13.334 0Z" clip-rule="evenodd"/>
</svg>
