<svg xmlns="http://www.w3.org/2000/svg" width="24" height="24" viewBox="0 0 24 24">
  <path fill="currentColor" d="M21.31 5.213 13.15.319a2.236 2.236 0 0 0-2.302 0L2.69 5.213a2.23 2.23 0 0 0-.635.571L11.8 11.63a.387.387 0 0 0 .4 0l9.745-5.846a2.234 2.234 0 0 0-.635-.571Zm-13.006.962c-.565.393-1.467.383-2.015-.023-.547-.405-.533-1.053.032-1.445.565-.394 1.468-.383 2.015.022.548.406.534 1.053-.032 1.446Zm9.335.112c-.565.393-1.467.383-2.015-.023-.548-.405-.534-1.053.032-1.445.565-.393 1.467-.383 2.015.022.547.406.533 1.053-.032 1.446Zm-6.102 5.823L1.781 6.26a2.237 2.237 0 0 0-.177.873v9.754c0 .786.412 1.514 1.086 1.919l8.159 4.893c.273.164.572.264.877.302V12.444a.388.388 0 0 0-.189-.333Zm-7.982 5.221c-.565-.308-1.023-1.015-1.023-1.58 0-.566.458-.774 1.023-.466s1.023 1.016 1.023 1.58c0 .566-.458.774-1.023.466Zm0-5.712c-.565-.309-1.023-1.016-1.023-1.581s.458-.774 1.023-.466 1.023 1.016 1.023 1.581-.458.774-1.023.466Zm2.856 4.413c-.565-.308-1.023-1.016-1.023-1.581s.458-.774 1.023-.466c.566.308 1.024 1.016 1.024 1.581s-.458.774-1.024.466Zm2.857 4.413c-.565-.308-1.023-1.016-1.023-1.581s.458-.773 1.023-.465 1.023 1.015 1.023 1.58c0 .566-.458.774-1.023.466Zm0-5.713c-.565-.307-1.023-1.015-1.023-1.58 0-.566.458-.774 1.023-.466s1.023 1.016 1.023 1.58c0 .566-.458.774-1.023.466Zm12.95-8.473-9.756 5.852a.388.388 0 0 0-.188.333V24c.305-.038.604-.138.877-.302l8.159-4.893a2.239 2.239 0 0 0 1.086-1.92V7.133c0-.305-.062-.601-.178-.873Zm-7.16 6.066c.565-.308 1.023-.1 1.023.466 0 .564-.458 1.272-1.023 1.58-.566.308-1.024.1-1.024-.465 0-.565.458-1.273 1.024-1.581Zm0 8.71c-.566.307-1.024.1-1.024-.466 0-.565.458-1.273 1.024-1.581.565-.308 1.023-.1 1.023.465 0 .566-.458 1.273-1.023 1.582Zm.06-3.332c-.564.308-1.023.1-1.023-.466 0-.565.459-1.272 1.024-1.58.565-.309 1.023-.1 1.023.465 0 .565-.458 1.273-1.023 1.581Zm4.912.41c-.565.308-1.023.1-1.023-.466 0-.565.458-1.273 1.023-1.58.566-.309 1.024-.1 1.024.465 0 .565-.458 1.273-1.023 1.58Zm0-3.332c-.565.308-1.023.1-1.023-.465 0-.566.458-1.273 1.023-1.581.566-.308 1.024-.1 1.024.465 0 .565-.458 1.273-1.023 1.581Zm0-3.332c-.565.308-1.023.1-1.023-.465 0-.565.458-1.273 1.023-1.58.566-.309 1.024-.1 1.024.465 0 .565-.458 1.272-1.023 1.58Z"/>
</svg>
