<svg xmlns="http://www.w3.org/2000/svg" width="24" height="24" viewBox="0 0 24 24">
  <path fill="currentColor" fill-rule="evenodd" d="M12 0c6.627 0 12 5.373 12 12s-5.373 12-12 12S0 18.627 0 12 5.373 0 12 0Zm7.181 6.469c.257-.895-.584-1.737-1.48-1.48l-.122.042-8.485 3.395-.127.059a1.2 1.2 0 0 0-.468.458l-.073.151-3.395 8.485-.042.123c-.257.895.585 1.736 1.48 1.48l.122-.043 8.486-3.394.126-.06a1.2 1.2 0 0 0 .469-.458l.073-.15 3.394-8.486.042-.122ZM12 9.6a2.4 2.4 0 1 1 0 4.8 2.4 2.4 0 0 1 0-4.8Z" clip-rule="evenodd"/>
</svg>
