<svg xmlns="http://www.w3.org/2000/svg" width="24" height="24" viewBox="0 0 24 24">
  <path fill="currentColor" d="M11.937 3.77c-2.067 0-3.742 1.956-3.742 4.37 0 1.673.805 3.126 1.989 3.86l-1.372.636L5.16 14.33c-.353.176-.53.475-.53.899v4.022c.03.503.331.971.82.98h12.993c.558-.05.841-.5.846-.98v-4.022c0-.424-.176-.723-.528-.9l-3.52-1.693-1.463-.693c1.135-.75 1.901-2.172 1.901-3.804 0-2.413-1.675-4.37-3.742-4.37ZM5.9 5.306c-.889.034-1.594.419-2.13 1.032a4 4 0 0 0-.886 2.487c.036 1.29.613 2.51 1.64 3.15l-4.1 1.905c-.283.106-.424.353-.424.74v3.229c.022.428.244.788.661.794h2.726v-3.414c.045-.913.474-1.65 1.244-2.01l2.725-1.297c.211-.124.414-.292.608-.503a6.132 6.132 0 0 1-.555-5.636c-.471-.288-1-.474-1.509-.477Zm12.172 0c-.581.012-1.119.227-1.56.53.704 1.842.51 3.92-.53 5.53.23.264.468.467.715.608l2.62 1.244c.797.438 1.209 1.182 1.216 2.01v3.415h2.805c.461-.04.658-.408.662-.794V14.62c0-.353-.141-.6-.423-.741l-4.049-1.932a3.877 3.877 0 0 0 1.588-3.123c-.028-.94-.316-1.813-.887-2.487-.598-.648-1.338-1.025-2.157-1.032Z"/>
</svg>
