<svg xmlns="http://www.w3.org/2000/svg" width="24" height="24" viewBox="0 0 24 24">
  <path fill="currentColor" d="M16.475 18.867c-1.808.9-3.83 1.433-5.867 1.433-3.425 0-6.296-1.67-6.296-1.67-.67 0-1.475 2.703-2.637 2.703-1.125 0-1.675-1-1.675-1.604 0-1.379 2.65-2.454 2.65-3.22 0 0-.52-.884-.52-2.467 0-4.217 3.387-7.225 7.19-8.471 2.747-.9 8.584.146 10.447-1.604.737-.675 1.1-1.3 2.225-1.3C23.504 2.667 24 6.55 24 7.679c0 4.621-2.27 8.604-7.525 11.188Zm-10.596-3.15c2.646-3.746 6.021-5.367 10.738-5a.667.667 0 0 0 .104-1.33c-5.167-.4-8.996 1.413-11.93 5.563a.664.664 0 1 0 1.088.767Z"/>
</svg>
