<svg xmlns="http://www.w3.org/2000/svg" width="24" height="24" viewBox="0 0 24 24">
  <path fill="currentColor" d="M5.211 3.515a1.2 1.2 0 0 1 0 1.696 9.6 9.6 0 0 0 0 13.578 1.2 1.2 0 1 1-1.696 1.696c-4.687-4.686-4.687-12.284 0-16.97a1.2 1.2 0 0 1 1.696 0Zm15.274 0c4.687 4.686 4.687 12.284 0 16.97a1.2 1.2 0 0 1-1.696-1.696 9.6 9.6 0 0 0 0-13.578 1.2 1.2 0 0 1 1.696-1.696ZM8.77 6.962a1.2 1.2 0 0 1 0 1.696 4.703 4.703 0 0 0 0 6.652 1.2 1.2 0 1 1-1.696 1.696 7.102 7.102 0 0 1 0-10.044 1.2 1.2 0 0 1 1.696 0Zm8.348 0a7.102 7.102 0 0 1 0 10.044 1.2 1.2 0 0 1-1.696-1.696 4.703 4.703 0 0 0 0-6.652 1.2 1.2 0 0 1 1.696-1.696Zm-5.022 3.322a1.8 1.8 0 1 1 0 3.6 1.8 1.8 0 0 1 0-3.6Z"/>
</svg>
