<svg xmlns="http://www.w3.org/2000/svg" width="24" height="24" viewBox="0 0 24 24">
  <path fill="currentColor" fill-rule="evenodd" d="M20.727 3.273A3.273 3.273 0 0 1 24 6.545v10.91a3.273 3.273 0 0 1-3.273 3.272H3.273A3.273 3.273 0 0 1 0 17.454V6.545a3.273 3.273 0 0 1 3.273-3.272h17.454Zm-.815 2.182H4.088l7.236 5.712a1.09 1.09 0 0 0 1.352 0l7.236-5.712ZM2.182 6.73v10.724a1.09 1.09 0 0 0 1.09 1.091h17.455a1.09 1.09 0 0 0 1.091-1.09V6.73l-7.79 6.15a3.273 3.273 0 0 1-4.056 0l-7.79-6.15Z" clip-rule="evenodd"/>
</svg>
