<svg xmlns="http://www.w3.org/2000/svg" width="24" height="24" viewBox="0 0 24 24">
  <path fill="currentColor" d="M6 6h4.5v4.5H6V6Zm12 0v4.5h-4.5V6H18Zm-4.5 8.25H15v-1.5h-1.5v-1.5H15v1.5h1.5v-1.5H18v1.5h-1.5v1.5H18v2.25h-1.5V18H15v-1.5h-2.25V18h-1.5v-3h2.25v-.75Zm1.5 0v2.25h1.5v-2.25H15ZM6 18v-4.5h4.5V18H6ZM7.5 7.5V9H9V7.5H7.5Zm7.5 0V9h1.5V7.5H15ZM7.5 15v1.5H9V15H7.5ZM6 11.25h1.5v1.5H6v-1.5Zm3.75 0h3v3h-1.5v-1.5h-1.5v-1.5Zm1.5-3.75h1.5v3h-1.5v-3Zm-6.75-3v3H3v-3A1.5 1.5 0 0 1 4.5 3h3v1.5h-3Zm15-1.5A1.5 1.5 0 0 1 21 4.5v3h-1.5v-3h-3V3h3Zm-15 13.5v3h3V21h-3A1.5 1.5 0 0 1 3 19.5v-3h1.5Zm15 3v-3H21v3a1.5 1.5 0 0 1-1.5 1.5h-3v-1.5h3Z"/>
</svg>
