<svg xmlns="http://www.w3.org/2000/svg" width="24" height="24" viewBox="0 0 24 24">
  <path fill="currentColor" d="M12 20.308c-2.577 0-4.904-.75-6.98-2.25C2.903 16.558 1.23 14.538 0 12c1.23-2.538 2.904-4.558 5.02-6.058 2.076-1.5 4.403-2.25 6.98-2.25 2.461 0 4.77.789 6.923 2.366C21.077 7.596 22.77 9.577 24 12c-1.23 2.423-2.923 4.423-5.077 6-2.154 1.538-4.461 2.308-6.923 2.308Zm0-2.77c1.539 0 2.846-.538 3.923-1.615S17.538 13.54 17.538 12c0-1.538-.538-2.846-1.615-3.923S13.54 6.462 12 6.462c-1.539 0-2.846.538-3.923 1.615S6.462 10.462 6.462 12c0 1.539.538 2.846 1.615 3.923S10.46 17.538 12 17.538Zm0-2.307c-.885 0-1.635-.308-2.25-.923-.654-.654-.98-1.423-.98-2.308 0-.884.326-1.634.98-2.25.615-.654 1.365-.98 2.25-.98s1.654.326 2.308.98c.615.616.923 1.366.923 2.25 0 .885-.308 1.654-.923 2.308-.654.615-1.423.923-2.308.923Z"/>
</svg>
